<mxfile host="app.diagrams.net" agent="Mozilla/5.0 (Windows NT 10.0; Win64; x64) AppleWebKit/537.36 (KHTML, like Gecko) Chrome/129.0.0.0 Safari/537.36" version="24.7.16">
  <diagram name="Strona-1" id="_bla7IHKkC0KR-xPRhTP">
    <mxGraphModel dx="2807" dy="2427" grid="1" gridSize="10" guides="1" tooltips="1" connect="1" arrows="1" fold="1" page="1" pageScale="1" pageWidth="827" pageHeight="1169" math="0" shadow="0">
      <root>
        <mxCell id="0" />
        <mxCell id="1" parent="0" />
        <mxCell id="8" value="&#xa;" style="whiteSpace=wrap;strokeWidth=2;" parent="1" vertex="1">
          <mxGeometry x="60" y="-630" width="328" height="380" as="geometry" />
        </mxCell>
        <mxCell id="9" value="Frontend&#xa;(Web &amp; Mobile)" style="whiteSpace=wrap;strokeWidth=2;fontStyle=1" parent="1" vertex="1">
          <mxGeometry x="97.5" y="-595" width="252.5" height="49" as="geometry" />
        </mxCell>
        <mxCell id="St0DvF56z310ZJDeOlH3-23" value="&lt;b&gt;SECURITY:&lt;/b&gt;&lt;div&gt;&lt;b&gt;&lt;br&gt;&lt;/b&gt;&lt;div&gt;- HTTPS&lt;br&gt;- OAuth2/JWT&lt;div&gt;- Two-Factor Authentication&lt;br&gt;&lt;br&gt;&lt;b&gt;OPTIMIZATION:&lt;/b&gt;&lt;/div&gt;&lt;div&gt;&lt;b&gt;&lt;br&gt;&lt;/b&gt;&lt;/div&gt;&lt;div&gt;&lt;span style=&quot;background-color: initial;&quot;&gt;- Code Splitting and Lazy Loading&lt;/span&gt;&lt;div&gt;-&amp;nbsp;Memoization&lt;div&gt;-&amp;nbsp; Property Listings Virtualization&lt;/div&gt;&lt;div&gt;- CDN&lt;/div&gt;&lt;div&gt;-&amp;nbsp;Service Workers and Caching&lt;/div&gt;&lt;/div&gt;&lt;/div&gt;&lt;/div&gt;&lt;/div&gt;" style="rounded=1;whiteSpace=wrap;html=1;" parent="1" vertex="1">
          <mxGeometry x="97.5" y="-530" width="251" height="250" as="geometry" />
        </mxCell>
        <mxCell id="St0DvF56z310ZJDeOlH3-26" style="edgeStyle=orthogonalEdgeStyle;rounded=0;orthogonalLoop=1;jettySize=auto;html=1;exitX=0.5;exitY=1;exitDx=0;exitDy=0;" parent="1" source="8" target="8" edge="1">
          <mxGeometry relative="1" as="geometry" />
        </mxCell>
        <mxCell id="St0DvF56z310ZJDeOlH3-28" value="&#xa;" style="whiteSpace=wrap;strokeWidth=2;" parent="1" vertex="1">
          <mxGeometry x="480" y="-630" width="330" height="660" as="geometry" />
        </mxCell>
        <mxCell id="St0DvF56z310ZJDeOlH3-29" value="Backend/API" style="whiteSpace=wrap;strokeWidth=2;fontStyle=1" parent="1" vertex="1">
          <mxGeometry x="517.5" y="-595" width="252.5" height="49" as="geometry" />
        </mxCell>
        <mxCell id="St0DvF56z310ZJDeOlH3-30" value="&lt;p data-pm-slice=&quot;0 0 []&quot;&gt;&lt;b&gt;Security:&lt;/b&gt;&lt;/p&gt;&lt;p&gt;JWT,&amp;nbsp;&lt;span style=&quot;background-color: initial;&quot;&gt;CORS,&amp;nbsp;&lt;/span&gt;&lt;span style=&quot;background-color: initial;&quot;&gt;OAuth2.&amp;nbsp;&lt;/span&gt;&lt;span style=&quot;background-color: initial;&quot;&gt;HTTPS&lt;/span&gt;&lt;/p&gt;&lt;p&gt;&lt;/p&gt;&lt;p&gt;&lt;b&gt;Caching:&lt;/b&gt;&lt;/p&gt;&lt;p&gt;Redis&lt;/p&gt;&lt;p&gt;&lt;/p&gt;&lt;p&gt;&lt;b&gt;Database Management:&lt;/b&gt;&lt;/p&gt;&lt;p&gt;PostgreSQL,&amp;nbsp;&lt;span style=&quot;background-color: initial;&quot;&gt;Read Replicas.&amp;nbsp;&lt;/span&gt;&lt;span style=&quot;background-color: initial;&quot;&gt;Database Backup, Monitoring&lt;/span&gt;&lt;/p&gt;&lt;p&gt;&lt;/p&gt;&lt;p&gt;&lt;b&gt;Search Optimization:&lt;/b&gt;&lt;/p&gt;&lt;p&gt;Elasticsearch&lt;/p&gt;&lt;p&gt;&lt;/p&gt;&lt;p&gt;&lt;b&gt;Load Balancing and Scalability:&lt;/b&gt;&lt;/p&gt;&lt;p&gt;Load Balancer (AWS ELB),&amp;nbsp;&lt;span style=&quot;background-color: initial;&quot;&gt;Auto-scaling&amp;nbsp;&lt;/span&gt;&lt;/p&gt;&lt;p&gt;&lt;span style=&quot;background-color: initial;&quot;&gt;(AWS EC2)&lt;/span&gt;&lt;/p&gt;&lt;p&gt;&lt;/p&gt;&lt;p&gt;&lt;b&gt;Real-time Communication:&lt;/b&gt;&lt;/p&gt;&lt;p&gt;WebSockets&lt;/p&gt;&lt;p&gt;&lt;/p&gt;&lt;p&gt;&lt;b&gt;Logging and Monitoring:&lt;/b&gt;&lt;/p&gt;&lt;p&gt;AWS CloudWatch,&amp;nbsp;&lt;span style=&quot;background-color: initial;&quot;&gt;Error Logging&lt;/span&gt;&lt;/p&gt;&lt;p&gt;&lt;br&gt;&lt;/p&gt;&lt;p&gt;&lt;b&gt;API Optimization:&lt;/b&gt;&lt;/p&gt;&lt;p&gt;Rate Limiting,&amp;nbsp;&lt;span style=&quot;background-color: initial;&quot;&gt;GraphQL (Optional),&amp;nbsp;&lt;/span&gt;&lt;span style=&quot;background-color: initial;&quot;&gt;Batch API Requests&lt;/span&gt;&lt;/p&gt;" style="rounded=1;whiteSpace=wrap;html=1;" parent="1" vertex="1">
          <mxGeometry x="517.5" y="-530" width="252.5" height="530" as="geometry" />
        </mxCell>
        <mxCell id="St0DvF56z310ZJDeOlH3-32" style="edgeStyle=orthogonalEdgeStyle;rounded=0;orthogonalLoop=1;jettySize=auto;html=1;exitX=0.5;exitY=1;exitDx=0;exitDy=0;" parent="1" source="St0DvF56z310ZJDeOlH3-28" target="St0DvF56z310ZJDeOlH3-28" edge="1">
          <mxGeometry relative="1" as="geometry" />
        </mxCell>
        <mxCell id="St0DvF56z310ZJDeOlH3-33" value="" style="endArrow=classic;html=1;rounded=0;" parent="1" edge="1">
          <mxGeometry width="50" height="50" relative="1" as="geometry">
            <mxPoint x="390" y="-570" as="sourcePoint" />
            <mxPoint x="480" y="-570" as="targetPoint" />
          </mxGeometry>
        </mxCell>
        <mxCell id="St0DvF56z310ZJDeOlH3-34" value="&#xa;" style="whiteSpace=wrap;strokeWidth=2;" parent="1" vertex="1">
          <mxGeometry x="880" y="-1040" width="320" height="601" as="geometry" />
        </mxCell>
        <mxCell id="St0DvF56z310ZJDeOlH3-35" value="Database &amp; Infrastructure" style="whiteSpace=wrap;strokeWidth=2;fontStyle=1" parent="1" vertex="1">
          <mxGeometry x="917.5" y="-1005" width="252.5" height="49" as="geometry" />
        </mxCell>
        <mxCell id="St0DvF56z310ZJDeOlH3-36" value="&lt;p data-pm-slice=&quot;0 0 []&quot;&gt;&lt;b&gt;Storage:&lt;/b&gt;&lt;/p&gt;&lt;p&gt;&lt;/p&gt;&lt;p&gt;- AWS S3&lt;/p&gt;&lt;p&gt;- AWS RDS (&lt;b&gt;PostgreSQL&lt;/b&gt;)&lt;/p&gt;&lt;p&gt;-AWS Backup&lt;/p&gt;&lt;p&gt;&lt;b&gt;Compute &amp;amp; Scalability:&lt;/b&gt;&lt;/p&gt;&lt;p&gt;&lt;/p&gt;&lt;p&gt;- AWS EC2 Auto-scaling&lt;/p&gt;&lt;p&gt;- AWS Elastic Load Balancer (ELB)&lt;/p&gt;&lt;p&gt;&lt;b&gt;Caching &amp;amp; Optimization:&lt;/b&gt;&lt;/p&gt;&lt;p&gt;&lt;/p&gt;&lt;p&gt;- Redis Cache&lt;/p&gt;&lt;p&gt;&lt;b&gt;Networking &amp;amp; Security:&lt;/b&gt;&lt;/p&gt;&lt;p&gt;&lt;/p&gt;&lt;p&gt;- AWS VPC&lt;/p&gt;&lt;p&gt;- AWS Security Groups&lt;/p&gt;&lt;p&gt;- AWS IAM&lt;/p&gt;&lt;p&gt;- AWS CloudFront (CDN)&lt;/p&gt;&lt;p&gt;&lt;b&gt;Monitoring &amp;amp; Logging:&lt;/b&gt;&lt;/p&gt;&lt;p&gt;&lt;/p&gt;&lt;p&gt;- AWS CloudWatch&lt;/p&gt;" style="rounded=1;whiteSpace=wrap;html=1;" parent="1" vertex="1">
          <mxGeometry x="917.5" y="-940" width="251" height="461" as="geometry" />
        </mxCell>
        <mxCell id="St0DvF56z310ZJDeOlH3-37" style="edgeStyle=orthogonalEdgeStyle;rounded=0;orthogonalLoop=1;jettySize=auto;html=1;exitX=0.5;exitY=1;exitDx=0;exitDy=0;" parent="1" source="St0DvF56z310ZJDeOlH3-34" target="St0DvF56z310ZJDeOlH3-34" edge="1">
          <mxGeometry relative="1" as="geometry" />
        </mxCell>
        <mxCell id="St0DvF56z310ZJDeOlH3-38" value="&#xa;" style="whiteSpace=wrap;strokeWidth=2;" parent="1" vertex="1">
          <mxGeometry x="880" y="-340" width="328" height="540" as="geometry" />
        </mxCell>
        <mxCell id="St0DvF56z310ZJDeOlH3-39" value="Infrastructure &amp; Scalability" style="whiteSpace=wrap;strokeWidth=2;fontStyle=1" parent="1" vertex="1">
          <mxGeometry x="917.5" y="-305" width="252.5" height="49" as="geometry" />
        </mxCell>
        <mxCell id="St0DvF56z310ZJDeOlH3-40" value="&lt;p data-pm-slice=&quot;0 0 []&quot;&gt;&lt;b&gt;AWS EC2 Auto-scaling&lt;/b&gt;&amp;nbsp;&lt;/p&gt;&lt;p data-pm-slice=&quot;0 0 []&quot;&gt;For scaling the backend based on traffic&lt;/p&gt;&lt;p&gt;&lt;b&gt;AWS Elastic Load Balancer&lt;/b&gt; (ELB)&amp;nbsp;&lt;/p&gt;&lt;p&gt;For distributing traffic&lt;/p&gt;&lt;p&gt;&lt;b&gt;AWS RDS (PostgreSQL)&lt;/b&gt;&amp;nbsp;&lt;/p&gt;&lt;p&gt;For hosting the database with read replicas&lt;/p&gt;&lt;p&gt;&lt;b&gt;AWS CloudFront CDN&lt;/b&gt;&amp;nbsp;&lt;/p&gt;&lt;p&gt;For serving static files quickly&lt;/p&gt;&lt;p&gt;&lt;b&gt;AWS VPC&lt;/b&gt;&amp;nbsp;&lt;/p&gt;&lt;p&gt;For isolating the infrastructure&lt;/p&gt;&lt;p&gt;&lt;b&gt;AWS Security Groups&lt;/b&gt;&amp;nbsp;&lt;/p&gt;&lt;p&gt;For controlling traffic to/from services&lt;/p&gt;&lt;p&gt;&lt;b&gt;AWS WAF&lt;/b&gt;&amp;nbsp;&lt;/p&gt;&lt;p&gt;For protecting against web attacks&lt;/p&gt;" style="rounded=1;whiteSpace=wrap;html=1;" parent="1" vertex="1">
          <mxGeometry x="917.5" y="-240" width="251" height="410" as="geometry" />
        </mxCell>
        <mxCell id="St0DvF56z310ZJDeOlH3-41" style="edgeStyle=orthogonalEdgeStyle;rounded=0;orthogonalLoop=1;jettySize=auto;html=1;exitX=0.5;exitY=1;exitDx=0;exitDy=0;" parent="1" source="St0DvF56z310ZJDeOlH3-38" target="St0DvF56z310ZJDeOlH3-38" edge="1">
          <mxGeometry relative="1" as="geometry" />
        </mxCell>
        <mxCell id="St0DvF56z310ZJDeOlH3-44" value="" style="endArrow=classic;html=1;rounded=0;entryX=1;entryY=0.75;entryDx=0;entryDy=0;" parent="1" edge="1">
          <mxGeometry width="50" height="50" relative="1" as="geometry">
            <mxPoint x="480" y="-558" as="sourcePoint" />
            <mxPoint x="386.25" y="-558.25" as="targetPoint" />
          </mxGeometry>
        </mxCell>
        <mxCell id="St0DvF56z310ZJDeOlH3-45" value="" style="endArrow=classic;html=1;rounded=0;entryX=0.994;entryY=0.403;entryDx=0;entryDy=0;entryPerimeter=0;exitX=0.48;exitY=0;exitDx=0;exitDy=0;exitPerimeter=0;" parent="1" source="St0DvF56z310ZJDeOlH3-38" edge="1" target="St0DvF56z310ZJDeOlH3-28">
          <mxGeometry width="50" height="50" relative="1" as="geometry">
            <mxPoint x="1227.65" y="174.6199999999999" as="sourcePoint" />
            <mxPoint x="1070" y="40.000000000000114" as="targetPoint" />
          </mxGeometry>
        </mxCell>
        <mxCell id="St0DvF56z310ZJDeOlH3-46" value="" style="endArrow=classic;html=1;rounded=0;entryX=-0.005;entryY=0.055;entryDx=0;entryDy=0;entryPerimeter=0;" parent="1" target="St0DvF56z310ZJDeOlH3-38" edge="1">
          <mxGeometry width="50" height="50" relative="1" as="geometry">
            <mxPoint x="810" y="-320" as="sourcePoint" />
            <mxPoint x="1130" y="110" as="targetPoint" />
          </mxGeometry>
        </mxCell>
        <mxCell id="St0DvF56z310ZJDeOlH3-47" value="" style="endArrow=classic;html=1;rounded=0;entryX=1.003;entryY=0.182;entryDx=0;entryDy=0;entryPerimeter=0;exitX=0.516;exitY=-0.001;exitDx=0;exitDy=0;exitPerimeter=0;" parent="1" edge="1">
          <mxGeometry width="50" height="50" relative="1" as="geometry">
            <mxPoint x="879.9999999999999" y="-584.0010000000002" as="sourcePoint" />
            <mxPoint x="810.9899999999998" y="-531.3000000000001" as="targetPoint" />
          </mxGeometry>
        </mxCell>
        <mxCell id="St0DvF56z310ZJDeOlH3-49" value="" style="endArrow=classic;html=1;rounded=0;exitX=1.007;exitY=0.019;exitDx=0;exitDy=0;exitPerimeter=0;entryX=0.006;entryY=0.653;entryDx=0;entryDy=0;entryPerimeter=0;" parent="1" edge="1">
          <mxGeometry width="50" height="50" relative="1" as="geometry">
            <mxPoint x="810.39" y="-584.9099999999999" as="sourcePoint" />
            <mxPoint x="880.0000000000006" y="-614.9970000000001" as="targetPoint" />
          </mxGeometry>
        </mxCell>
        <mxCell id="St0DvF56z310ZJDeOlH3-51" value="External Services ( Third-Party Integrations )" style="whiteSpace=wrap;strokeWidth=2;fontStyle=1" parent="1" vertex="1">
          <mxGeometry x="110" y="-930" width="660" height="49" as="geometry" />
        </mxCell>
        <mxCell id="St0DvF56z310ZJDeOlH3-52" value="&lt;b&gt;Payment Processing:&lt;/b&gt;&lt;div&gt;- Stripe, PayPal, GoPay&lt;/div&gt;" style="rounded=1;whiteSpace=wrap;html=1;" parent="1" vertex="1">
          <mxGeometry x="110" y="-855" width="200" height="100" as="geometry" />
        </mxCell>
        <mxCell id="St0DvF56z310ZJDeOlH3-53" style="edgeStyle=orthogonalEdgeStyle;rounded=0;orthogonalLoop=1;jettySize=auto;html=1;exitX=0.5;exitY=1;exitDx=0;exitDy=0;" parent="1" edge="1">
          <mxGeometry relative="1" as="geometry">
            <mxPoint x="440" y="-750" as="sourcePoint" />
            <mxPoint x="440" y="-750" as="targetPoint" />
          </mxGeometry>
        </mxCell>
        <mxCell id="St0DvF56z310ZJDeOlH3-54" value="&lt;b&gt;Customer Support:&lt;/b&gt;&lt;br&gt;- Zebdesk, Intercom or Freshdesk" style="rounded=1;whiteSpace=wrap;html=1;" parent="1" vertex="1">
          <mxGeometry x="340" y="-855" width="200" height="100" as="geometry" />
        </mxCell>
        <mxCell id="St0DvF56z310ZJDeOlH3-55" value="&lt;strong&gt;CRM Integration &amp;amp; Analytics:&lt;br&gt;&lt;/strong&gt;- Salesforce or HubSpot&lt;br&gt;- Google Analytics, Mixpanel" style="rounded=1;whiteSpace=wrap;html=1;" parent="1" vertex="1">
          <mxGeometry x="570" y="-855" width="200" height="100" as="geometry" />
        </mxCell>
        <mxCell id="St0DvF56z310ZJDeOlH3-58" value="" style="endArrow=classic;html=1;rounded=0;entryX=0.5;entryY=1;entryDx=0;entryDy=0;exitX=0.451;exitY=0.001;exitDx=0;exitDy=0;exitPerimeter=0;" parent="1" source="8" target="St0DvF56z310ZJDeOlH3-52" edge="1">
          <mxGeometry width="50" height="50" relative="1" as="geometry">
            <mxPoint x="170" y="-660" as="sourcePoint" />
            <mxPoint x="390" y="-570" as="targetPoint" />
          </mxGeometry>
        </mxCell>
        <mxCell id="St0DvF56z310ZJDeOlH3-60" value="" style="endArrow=classic;html=1;rounded=0;exitX=0.289;exitY=0.001;exitDx=0;exitDy=0;exitPerimeter=0;" parent="1" source="St0DvF56z310ZJDeOlH3-28" edge="1">
          <mxGeometry width="50" height="50" relative="1" as="geometry">
            <mxPoint x="570" y="-640" as="sourcePoint" />
            <mxPoint x="240" y="-750" as="targetPoint" />
          </mxGeometry>
        </mxCell>
        <mxCell id="St0DvF56z310ZJDeOlH3-61" value="" style="endArrow=classic;html=1;rounded=0;exitX=0.488;exitY=0;exitDx=0;exitDy=0;exitPerimeter=0;entryX=0.5;entryY=1;entryDx=0;entryDy=0;" parent="1" source="8" target="St0DvF56z310ZJDeOlH3-54" edge="1">
          <mxGeometry width="50" height="50" relative="1" as="geometry">
            <mxPoint x="370" y="-650" as="sourcePoint" />
            <mxPoint x="420" y="-700" as="targetPoint" />
          </mxGeometry>
        </mxCell>
        <mxCell id="St0DvF56z310ZJDeOlH3-62" value="" style="endArrow=classic;html=1;rounded=0;exitX=0.582;exitY=-0.004;exitDx=0;exitDy=0;exitPerimeter=0;entryX=0.5;entryY=1;entryDx=0;entryDy=0;" parent="1" source="St0DvF56z310ZJDeOlH3-28" target="St0DvF56z310ZJDeOlH3-55" edge="1">
          <mxGeometry width="50" height="50" relative="1" as="geometry">
            <mxPoint x="440" y="-700" as="sourcePoint" />
            <mxPoint x="490" y="-750" as="targetPoint" />
          </mxGeometry>
        </mxCell>
        <mxCell id="St0DvF56z310ZJDeOlH3-63" value="" style="endArrow=classic;html=1;rounded=0;exitX=0.689;exitY=-0.007;exitDx=0;exitDy=0;exitPerimeter=0;" parent="1" source="8" edge="1">
          <mxGeometry width="50" height="50" relative="1" as="geometry">
            <mxPoint x="440" y="-700" as="sourcePoint" />
            <mxPoint x="650" y="-750" as="targetPoint" />
          </mxGeometry>
        </mxCell>
        <mxCell id="St0DvF56z310ZJDeOlH3-64" value="&lt;h1 style=&quot;line-height: 20%; font-size: 40px;&quot;&gt;&lt;font style=&quot;font-size: 40px;&quot; face=&quot;Lucida Console&quot;&gt;INDO &lt;font style=&quot;font-size: 40px;&quot; color=&quot;#ff0000&quot;&gt;HOT&lt;/font&gt; PROPERTY&amp;nbsp;&lt;/font&gt;&lt;/h1&gt;&lt;h2&gt;&lt;font style=&quot;font-weight: normal; font-size: 18px;&quot; face=&quot;Lucida Console&quot;&gt;ARCHITECTURE DIAGRAM&lt;/font&gt;&lt;/h2&gt;" style="text;html=1;align=center;verticalAlign=middle;resizable=0;points=[];autosize=1;strokeColor=none;fillColor=none;" parent="1" vertex="1">
          <mxGeometry x="205" y="-1070" width="470" height="110" as="geometry" />
        </mxCell>
      </root>
    </mxGraphModel>
  </diagram>
</mxfile>
